<?xml version="1.0" encoding="utf-8" standalone="no"?>
<!DOCTYPE svg PUBLIC "-//W3C//DTD SVG 1.1//EN"
  "http://www.w3.org/Graphics/SVG/1.1/DTD/svg11.dtd">
<!-- Created with matplotlib (https://matplotlib.org/) -->
<svg height="279.298125pt" version="1.1" viewBox="0 0 385.78125 279.298125" width="385.78125pt" xmlns="http://www.w3.org/2000/svg" xmlns:xlink="http://www.w3.org/1999/xlink">
 <metadata>
  <rdf:RDF xmlns:cc="http://creativecommons.org/ns#" xmlns:dc="http://purl.org/dc/elements/1.1/" xmlns:rdf="http://www.w3.org/1999/02/22-rdf-syntax-ns#">
   <cc:Work>
    <dc:type rdf:resource="http://purl.org/dc/dcmitype/StillImage"/>
    <dc:date>2021-03-13T22:09:02.492005</dc:date>
    <dc:format>image/svg+xml</dc:format>
    <dc:creator>
     <cc:Agent>
      <dc:title>Matplotlib v3.3.4, https://matplotlib.org/</dc:title>
     </cc:Agent>
    </dc:creator>
   </cc:Work>
  </rdf:RDF>
 </metadata>
 <defs>
  <style type="text/css">*{stroke-linecap:butt;stroke-linejoin:round;}</style>
 </defs>
 <g id="figure_1">
  <g id="patch_1">
   <path d="M 0 279.298125 
L 385.78125 279.298125 
L 385.78125 0 
L 0 0 
z
" style="fill:none;"/>
  </g>
  <g id="axes_1">
   <g id="patch_2">
    <path d="M 43.78125 123.138239 
L 378.58125 123.138239 
L 378.58125 24.301875 
L 43.78125 24.301875 
z
" style="fill:#ffffff;"/>
   </g>
   <g id="matplotlib.axis_1">
    <g id="xtick_1">
     <g id="line2d_1">
      <defs>
       <path d="M 0 0 
L 0 3.5 
" id="mc98e60126a" style="stroke:#000000;stroke-width:0.8;"/>
      </defs>
      <g>
       <use style="stroke:#000000;stroke-width:0.8;" x="58.999432" xlink:href="#mc98e60126a" y="123.138239"/>
      </g>
     </g>
     <g id="text_1">
      <!-- 2015 -->
      <g transform="translate(46.274432 137.736676)scale(0.1 -0.1)">
       <defs>
        <path d="M 19.1875 8.296875 
L 53.609375 8.296875 
L 53.609375 0 
L 7.328125 0 
L 7.328125 8.296875 
Q 12.9375 14.109375 22.625 23.890625 
Q 32.328125 33.6875 34.8125 36.53125 
Q 39.546875 41.84375 41.421875 45.53125 
Q 43.3125 49.21875 43.3125 52.78125 
Q 43.3125 58.59375 39.234375 62.25 
Q 35.15625 65.921875 28.609375 65.921875 
Q 23.96875 65.921875 18.8125 64.3125 
Q 13.671875 62.703125 7.8125 59.421875 
L 7.8125 69.390625 
Q 13.765625 71.78125 18.9375 73 
Q 24.125 74.21875 28.421875 74.21875 
Q 39.75 74.21875 46.484375 68.546875 
Q 53.21875 62.890625 53.21875 53.421875 
Q 53.21875 48.921875 51.53125 44.890625 
Q 49.859375 40.875 45.40625 35.40625 
Q 44.1875 33.984375 37.640625 27.21875 
Q 31.109375 20.453125 19.1875 8.296875 
z
" id="DejaVuSans-50"/>
        <path d="M 31.78125 66.40625 
Q 24.171875 66.40625 20.328125 58.90625 
Q 16.5 51.421875 16.5 36.375 
Q 16.5 21.390625 20.328125 13.890625 
Q 24.171875 6.390625 31.78125 6.390625 
Q 39.453125 6.390625 43.28125 13.890625 
Q 47.125 21.390625 47.125 36.375 
Q 47.125 51.421875 43.28125 58.90625 
Q 39.453125 66.40625 31.78125 66.40625 
z
M 31.78125 74.21875 
Q 44.046875 74.21875 50.515625 64.515625 
Q 56.984375 54.828125 56.984375 36.375 
Q 56.984375 17.96875 50.515625 8.265625 
Q 44.046875 -1.421875 31.78125 -1.421875 
Q 19.53125 -1.421875 13.0625 8.265625 
Q 6.59375 17.96875 6.59375 36.375 
Q 6.59375 54.828125 13.0625 64.515625 
Q 19.53125 74.21875 31.78125 74.21875 
z
" id="DejaVuSans-48"/>
        <path d="M 12.40625 8.296875 
L 28.515625 8.296875 
L 28.515625 63.921875 
L 10.984375 60.40625 
L 10.984375 69.390625 
L 28.421875 72.90625 
L 38.28125 72.90625 
L 38.28125 8.296875 
L 54.390625 8.296875 
L 54.390625 0 
L 12.40625 0 
z
" id="DejaVuSans-49"/>
        <path d="M 10.796875 72.90625 
L 49.515625 72.90625 
L 49.515625 64.59375 
L 19.828125 64.59375 
L 19.828125 46.734375 
Q 21.96875 47.46875 24.109375 47.828125 
Q 26.265625 48.1875 28.421875 48.1875 
Q 40.625 48.1875 47.75 41.5 
Q 54.890625 34.8125 54.890625 23.390625 
Q 54.890625 11.625 47.5625 5.09375 
Q 40.234375 -1.421875 26.90625 -1.421875 
Q 22.3125 -1.421875 17.546875 -0.640625 
Q 12.796875 0.140625 7.71875 1.703125 
L 7.71875 11.625 
Q 12.109375 9.234375 16.796875 8.0625 
Q 21.484375 6.890625 26.703125 6.890625 
Q 35.15625 6.890625 40.078125 11.328125 
Q 45.015625 15.765625 45.015625 23.390625 
Q 45.015625 31 40.078125 35.4375 
Q 35.15625 39.890625 26.703125 39.890625 
Q 22.75 39.890625 18.8125 39.015625 
Q 14.890625 38.140625 10.796875 36.28125 
z
" id="DejaVuSans-53"/>
       </defs>
       <use xlink:href="#DejaVuSans-50"/>
       <use x="63.623047" xlink:href="#DejaVuSans-48"/>
       <use x="127.246094" xlink:href="#DejaVuSans-49"/>
       <use x="190.869141" xlink:href="#DejaVuSans-53"/>
      </g>
     </g>
    </g>
    <g id="xtick_2">
     <g id="line2d_2">
      <g>
       <use style="stroke:#000000;stroke-width:0.8;" x="116.322821" xlink:href="#mc98e60126a" y="123.138239"/>
      </g>
     </g>
     <g id="text_2">
      <!-- 2016 -->
      <g transform="translate(103.597821 137.736676)scale(0.1 -0.1)">
       <defs>
        <path d="M 33.015625 40.375 
Q 26.375 40.375 22.484375 35.828125 
Q 18.609375 31.296875 18.609375 23.390625 
Q 18.609375 15.53125 22.484375 10.953125 
Q 26.375 6.390625 33.015625 6.390625 
Q 39.65625 6.390625 43.53125 10.953125 
Q 47.40625 15.53125 47.40625 23.390625 
Q 47.40625 31.296875 43.53125 35.828125 
Q 39.65625 40.375 33.015625 40.375 
z
M 52.59375 71.296875 
L 52.59375 62.3125 
Q 48.875 64.0625 45.09375 64.984375 
Q 41.3125 65.921875 37.59375 65.921875 
Q 27.828125 65.921875 22.671875 59.328125 
Q 17.53125 52.734375 16.796875 39.40625 
Q 19.671875 43.65625 24.015625 45.921875 
Q 28.375 48.1875 33.59375 48.1875 
Q 44.578125 48.1875 50.953125 41.515625 
Q 57.328125 34.859375 57.328125 23.390625 
Q 57.328125 12.15625 50.6875 5.359375 
Q 44.046875 -1.421875 33.015625 -1.421875 
Q 20.359375 -1.421875 13.671875 8.265625 
Q 6.984375 17.96875 6.984375 36.375 
Q 6.984375 53.65625 15.1875 63.9375 
Q 23.390625 74.21875 37.203125 74.21875 
Q 40.921875 74.21875 44.703125 73.484375 
Q 48.484375 72.75 52.59375 71.296875 
z
" id="DejaVuSans-54"/>
       </defs>
       <use xlink:href="#DejaVuSans-50"/>
       <use x="63.623047" xlink:href="#DejaVuSans-48"/>
       <use x="127.246094" xlink:href="#DejaVuSans-49"/>
       <use x="190.869141" xlink:href="#DejaVuSans-54"/>
      </g>
     </g>
    </g>
    <g id="xtick_3">
     <g id="line2d_3">
      <g>
       <use style="stroke:#000000;stroke-width:0.8;" x="173.80326" xlink:href="#mc98e60126a" y="123.138239"/>
      </g>
     </g>
     <g id="text_3">
      <!-- 2017 -->
      <g transform="translate(161.07826 137.736676)scale(0.1 -0.1)">
       <defs>
        <path d="M 8.203125 72.90625 
L 55.078125 72.90625 
L 55.078125 68.703125 
L 28.609375 0 
L 18.3125 0 
L 43.21875 64.59375 
L 8.203125 64.59375 
z
" id="DejaVuSans-55"/>
       </defs>
       <use xlink:href="#DejaVuSans-50"/>
       <use x="63.623047" xlink:href="#DejaVuSans-48"/>
       <use x="127.246094" xlink:href="#DejaVuSans-49"/>
       <use x="190.869141" xlink:href="#DejaVuSans-55"/>
      </g>
     </g>
    </g>
    <g id="xtick_4">
     <g id="line2d_4">
      <g>
       <use style="stroke:#000000;stroke-width:0.8;" x="231.126648" xlink:href="#mc98e60126a" y="123.138239"/>
      </g>
     </g>
     <g id="text_4">
      <!-- 2018 -->
      <g transform="translate(218.401648 137.736676)scale(0.1 -0.1)">
       <defs>
        <path d="M 31.78125 34.625 
Q 24.75 34.625 20.71875 30.859375 
Q 16.703125 27.09375 16.703125 20.515625 
Q 16.703125 13.921875 20.71875 10.15625 
Q 24.75 6.390625 31.78125 6.390625 
Q 38.8125 6.390625 42.859375 10.171875 
Q 46.921875 13.96875 46.921875 20.515625 
Q 46.921875 27.09375 42.890625 30.859375 
Q 38.875 34.625 31.78125 34.625 
z
M 21.921875 38.8125 
Q 15.578125 40.375 12.03125 44.71875 
Q 8.5 49.078125 8.5 55.328125 
Q 8.5 64.0625 14.71875 69.140625 
Q 20.953125 74.21875 31.78125 74.21875 
Q 42.671875 74.21875 48.875 69.140625 
Q 55.078125 64.0625 55.078125 55.328125 
Q 55.078125 49.078125 51.53125 44.71875 
Q 48 40.375 41.703125 38.8125 
Q 48.828125 37.15625 52.796875 32.3125 
Q 56.78125 27.484375 56.78125 20.515625 
Q 56.78125 9.90625 50.3125 4.234375 
Q 43.84375 -1.421875 31.78125 -1.421875 
Q 19.734375 -1.421875 13.25 4.234375 
Q 6.78125 9.90625 6.78125 20.515625 
Q 6.78125 27.484375 10.78125 32.3125 
Q 14.796875 37.15625 21.921875 38.8125 
z
M 18.3125 54.390625 
Q 18.3125 48.734375 21.84375 45.5625 
Q 25.390625 42.390625 31.78125 42.390625 
Q 38.140625 42.390625 41.71875 45.5625 
Q 45.3125 48.734375 45.3125 54.390625 
Q 45.3125 60.0625 41.71875 63.234375 
Q 38.140625 66.40625 31.78125 66.40625 
Q 25.390625 66.40625 21.84375 63.234375 
Q 18.3125 60.0625 18.3125 54.390625 
z
" id="DejaVuSans-56"/>
       </defs>
       <use xlink:href="#DejaVuSans-50"/>
       <use x="63.623047" xlink:href="#DejaVuSans-48"/>
       <use x="127.246094" xlink:href="#DejaVuSans-49"/>
       <use x="190.869141" xlink:href="#DejaVuSans-56"/>
      </g>
     </g>
    </g>
    <g id="xtick_5">
     <g id="line2d_5">
      <g>
       <use style="stroke:#000000;stroke-width:0.8;" x="288.450037" xlink:href="#mc98e60126a" y="123.138239"/>
      </g>
     </g>
     <g id="text_5">
      <!-- 2019 -->
      <g transform="translate(275.725037 137.736676)scale(0.1 -0.1)">
       <defs>
        <path d="M 10.984375 1.515625 
L 10.984375 10.5 
Q 14.703125 8.734375 18.5 7.8125 
Q 22.3125 6.890625 25.984375 6.890625 
Q 35.75 6.890625 40.890625 13.453125 
Q 46.046875 20.015625 46.78125 33.40625 
Q 43.953125 29.203125 39.59375 26.953125 
Q 35.25 24.703125 29.984375 24.703125 
Q 19.046875 24.703125 12.671875 31.3125 
Q 6.296875 37.9375 6.296875 49.421875 
Q 6.296875 60.640625 12.9375 67.421875 
Q 19.578125 74.21875 30.609375 74.21875 
Q 43.265625 74.21875 49.921875 64.515625 
Q 56.59375 54.828125 56.59375 36.375 
Q 56.59375 19.140625 48.40625 8.859375 
Q 40.234375 -1.421875 26.421875 -1.421875 
Q 22.703125 -1.421875 18.890625 -0.6875 
Q 15.09375 0.046875 10.984375 1.515625 
z
M 30.609375 32.421875 
Q 37.25 32.421875 41.125 36.953125 
Q 45.015625 41.5 45.015625 49.421875 
Q 45.015625 57.28125 41.125 61.84375 
Q 37.25 66.40625 30.609375 66.40625 
Q 23.96875 66.40625 20.09375 61.84375 
Q 16.21875 57.28125 16.21875 49.421875 
Q 16.21875 41.5 20.09375 36.953125 
Q 23.96875 32.421875 30.609375 32.421875 
z
" id="DejaVuSans-57"/>
       </defs>
       <use xlink:href="#DejaVuSans-50"/>
       <use x="63.623047" xlink:href="#DejaVuSans-48"/>
       <use x="127.246094" xlink:href="#DejaVuSans-49"/>
       <use x="190.869141" xlink:href="#DejaVuSans-57"/>
      </g>
     </g>
    </g>
    <g id="xtick_6">
     <g id="line2d_6">
      <g>
       <use style="stroke:#000000;stroke-width:0.8;" x="345.773426" xlink:href="#mc98e60126a" y="123.138239"/>
      </g>
     </g>
     <g id="text_6">
      <!-- 2020 -->
      <g transform="translate(333.048426 137.736676)scale(0.1 -0.1)">
       <use xlink:href="#DejaVuSans-50"/>
       <use x="63.623047" xlink:href="#DejaVuSans-48"/>
       <use x="127.246094" xlink:href="#DejaVuSans-50"/>
       <use x="190.869141" xlink:href="#DejaVuSans-48"/>
      </g>
     </g>
    </g>
    <g id="text_7">
     <!-- Tiempo -->
     <g transform="translate(192.714063 151.414801)scale(0.1 -0.1)">
      <defs>
       <path d="M -0.296875 72.90625 
L 61.375 72.90625 
L 61.375 64.59375 
L 35.5 64.59375 
L 35.5 0 
L 25.59375 0 
L 25.59375 64.59375 
L -0.296875 64.59375 
z
" id="DejaVuSans-84"/>
       <path d="M 9.421875 54.6875 
L 18.40625 54.6875 
L 18.40625 0 
L 9.421875 0 
z
M 9.421875 75.984375 
L 18.40625 75.984375 
L 18.40625 64.59375 
L 9.421875 64.59375 
z
" id="DejaVuSans-105"/>
       <path d="M 56.203125 29.59375 
L 56.203125 25.203125 
L 14.890625 25.203125 
Q 15.484375 15.921875 20.484375 11.0625 
Q 25.484375 6.203125 34.421875 6.203125 
Q 39.59375 6.203125 44.453125 7.46875 
Q 49.3125 8.734375 54.109375 11.28125 
L 54.109375 2.78125 
Q 49.265625 0.734375 44.1875 -0.34375 
Q 39.109375 -1.421875 33.890625 -1.421875 
Q 20.796875 -1.421875 13.15625 6.1875 
Q 5.515625 13.8125 5.515625 26.8125 
Q 5.515625 40.234375 12.765625 48.109375 
Q 20.015625 56 32.328125 56 
Q 43.359375 56 49.78125 48.890625 
Q 56.203125 41.796875 56.203125 29.59375 
z
M 47.21875 32.234375 
Q 47.125 39.59375 43.09375 43.984375 
Q 39.0625 48.390625 32.421875 48.390625 
Q 24.90625 48.390625 20.390625 44.140625 
Q 15.875 39.890625 15.1875 32.171875 
z
" id="DejaVuSans-101"/>
       <path d="M 52 44.1875 
Q 55.375 50.25 60.0625 53.125 
Q 64.75 56 71.09375 56 
Q 79.640625 56 84.28125 50.015625 
Q 88.921875 44.046875 88.921875 33.015625 
L 88.921875 0 
L 79.890625 0 
L 79.890625 32.71875 
Q 79.890625 40.578125 77.09375 44.375 
Q 74.3125 48.1875 68.609375 48.1875 
Q 61.625 48.1875 57.5625 43.546875 
Q 53.515625 38.921875 53.515625 30.90625 
L 53.515625 0 
L 44.484375 0 
L 44.484375 32.71875 
Q 44.484375 40.625 41.703125 44.40625 
Q 38.921875 48.1875 33.109375 48.1875 
Q 26.21875 48.1875 22.15625 43.53125 
Q 18.109375 38.875 18.109375 30.90625 
L 18.109375 0 
L 9.078125 0 
L 9.078125 54.6875 
L 18.109375 54.6875 
L 18.109375 46.1875 
Q 21.1875 51.21875 25.484375 53.609375 
Q 29.78125 56 35.6875 56 
Q 41.65625 56 45.828125 52.96875 
Q 50 49.953125 52 44.1875 
z
" id="DejaVuSans-109"/>
       <path d="M 18.109375 8.203125 
L 18.109375 -20.796875 
L 9.078125 -20.796875 
L 9.078125 54.6875 
L 18.109375 54.6875 
L 18.109375 46.390625 
Q 20.953125 51.265625 25.265625 53.625 
Q 29.59375 56 35.59375 56 
Q 45.5625 56 51.78125 48.09375 
Q 58.015625 40.1875 58.015625 27.296875 
Q 58.015625 14.40625 51.78125 6.484375 
Q 45.5625 -1.421875 35.59375 -1.421875 
Q 29.59375 -1.421875 25.265625 0.953125 
Q 20.953125 3.328125 18.109375 8.203125 
z
M 48.6875 27.296875 
Q 48.6875 37.203125 44.609375 42.84375 
Q 40.53125 48.484375 33.40625 48.484375 
Q 26.265625 48.484375 22.1875 42.84375 
Q 18.109375 37.203125 18.109375 27.296875 
Q 18.109375 17.390625 22.1875 11.75 
Q 26.265625 6.109375 33.40625 6.109375 
Q 40.53125 6.109375 44.609375 11.75 
Q 48.6875 17.390625 48.6875 27.296875 
z
" id="DejaVuSans-112"/>
       <path d="M 30.609375 48.390625 
Q 23.390625 48.390625 19.1875 42.75 
Q 14.984375 37.109375 14.984375 27.296875 
Q 14.984375 17.484375 19.15625 11.84375 
Q 23.34375 6.203125 30.609375 6.203125 
Q 37.796875 6.203125 41.984375 11.859375 
Q 46.1875 17.53125 46.1875 27.296875 
Q 46.1875 37.015625 41.984375 42.703125 
Q 37.796875 48.390625 30.609375 48.390625 
z
M 30.609375 56 
Q 42.328125 56 49.015625 48.375 
Q 55.71875 40.765625 55.71875 27.296875 
Q 55.71875 13.875 49.015625 6.21875 
Q 42.328125 -1.421875 30.609375 -1.421875 
Q 18.84375 -1.421875 12.171875 6.21875 
Q 5.515625 13.875 5.515625 27.296875 
Q 5.515625 40.765625 12.171875 48.375 
Q 18.84375 56 30.609375 56 
z
" id="DejaVuSans-111"/>
      </defs>
      <use xlink:href="#DejaVuSans-84"/>
      <use x="57.958984" xlink:href="#DejaVuSans-105"/>
      <use x="85.742188" xlink:href="#DejaVuSans-101"/>
      <use x="147.265625" xlink:href="#DejaVuSans-109"/>
      <use x="244.677734" xlink:href="#DejaVuSans-112"/>
      <use x="308.154297" xlink:href="#DejaVuSans-111"/>
     </g>
    </g>
   </g>
   <g id="matplotlib.axis_2">
    <g id="ytick_1">
     <g id="line2d_7">
      <defs>
       <path d="M 0 0 
L -3.5 0 
" id="m5be6f5983b" style="stroke:#000000;stroke-width:0.8;"/>
      </defs>
      <g>
       <use style="stroke:#000000;stroke-width:0.8;" x="43.78125" xlink:href="#m5be6f5983b" y="88.646667"/>
      </g>
     </g>
     <g id="text_8">
      <!-- 0.4 -->
      <g transform="translate(20.878125 92.445886)scale(0.1 -0.1)">
       <defs>
        <path d="M 10.6875 12.40625 
L 21 12.40625 
L 21 0 
L 10.6875 0 
z
" id="DejaVuSans-46"/>
        <path d="M 37.796875 64.3125 
L 12.890625 25.390625 
L 37.796875 25.390625 
z
M 35.203125 72.90625 
L 47.609375 72.90625 
L 47.609375 25.390625 
L 58.015625 25.390625 
L 58.015625 17.1875 
L 47.609375 17.1875 
L 47.609375 0 
L 37.796875 0 
L 37.796875 17.1875 
L 4.890625 17.1875 
L 4.890625 26.703125 
z
" id="DejaVuSans-52"/>
       </defs>
       <use xlink:href="#DejaVuSans-48"/>
       <use x="63.623047" xlink:href="#DejaVuSans-46"/>
       <use x="95.410156" xlink:href="#DejaVuSans-52"/>
      </g>
     </g>
    </g>
    <g id="ytick_2">
     <g id="line2d_8">
      <g>
       <use style="stroke:#000000;stroke-width:0.8;" x="43.78125" xlink:href="#m5be6f5983b" y="44.269435"/>
      </g>
     </g>
     <g id="text_9">
      <!-- 0.6 -->
      <g transform="translate(20.878125 48.068653)scale(0.1 -0.1)">
       <use xlink:href="#DejaVuSans-48"/>
       <use x="63.623047" xlink:href="#DejaVuSans-46"/>
       <use x="95.410156" xlink:href="#DejaVuSans-54"/>
      </g>
     </g>
    </g>
    <g id="text_10">
     <!-- EVI -->
     <g transform="translate(14.798438 81.774744)rotate(-90)scale(0.1 -0.1)">
      <defs>
       <path d="M 9.8125 72.90625 
L 55.90625 72.90625 
L 55.90625 64.59375 
L 19.671875 64.59375 
L 19.671875 43.015625 
L 54.390625 43.015625 
L 54.390625 34.71875 
L 19.671875 34.71875 
L 19.671875 8.296875 
L 56.78125 8.296875 
L 56.78125 0 
L 9.8125 0 
z
" id="DejaVuSans-69"/>
       <path d="M 28.609375 0 
L 0.78125 72.90625 
L 11.078125 72.90625 
L 34.1875 11.53125 
L 57.328125 72.90625 
L 67.578125 72.90625 
L 39.796875 0 
z
" id="DejaVuSans-86"/>
       <path d="M 9.8125 72.90625 
L 19.671875 72.90625 
L 19.671875 0 
L 9.8125 0 
z
" id="DejaVuSans-73"/>
      </defs>
      <use xlink:href="#DejaVuSans-69"/>
      <use x="63.183594" xlink:href="#DejaVuSans-86"/>
      <use x="131.591797" xlink:href="#DejaVuSans-73"/>
     </g>
    </g>
   </g>
   <g id="line2d_9">
    <path clip-path="url(#pba957d1e7b)" d="M 58.999432 64.450389 
L 61.512238 56.651098 
L 64.025044 65.787796 
L 66.53785 94.021137 
L 69.050656 85.470987 
L 71.563462 75.611568 
L 74.076268 85.557437 
L 76.589074 73.675622 
L 79.10188 93.44998 
L 81.614687 84.545231 
L 89.153105 37.332801 
L 91.665911 60.478202 
L 94.178717 60.707913 
L 96.691523 45.51983 
L 99.204329 33.267686 
L 101.717135 47.0813 
L 104.229941 46.182424 
L 109.255553 54.888213 
L 111.768359 63.54335 
L 114.281166 74.849337 
L 116.322821 74.787546 
L 118.835627 87.211055 
L 121.348433 85.998063 
L 126.374045 102.071516 
L 128.886851 100.584578 
L 131.399657 86.355787 
L 133.912463 68.338064 
L 136.425269 73.26303 
L 138.938075 68.434566 
L 141.450881 66.962639 
L 143.963687 53.934633 
L 146.476493 49.106714 
L 148.9893 40.624035 
L 151.502106 38.593163 
L 154.014912 58.291855 
L 156.527718 49.836697 
L 159.040524 51.937594 
L 161.55333 63.182555 
L 164.066136 70.689212 
L 166.578942 74.206805 
L 169.091748 56.226773 
L 171.604554 50.792888 
L 173.80326 66.020236 
L 176.316066 53.114589 
L 178.828872 62.908746 
L 181.341678 77.360804 
L 183.854484 88.538639 
L 186.36729 62.518622 
L 188.880096 62.67859 
L 191.392902 79.739871 
L 198.93132 43.043195 
L 201.444126 30.317637 
L 203.956933 56.721885 
L 206.469739 58.891386 
L 208.982545 35.287104 
L 211.495351 28.794437 
L 214.008157 50.471779 
L 216.520963 49.511212 
L 219.033769 40.606839 
L 221.546575 59.321097 
L 224.059381 47.962835 
L 226.572187 69.779378 
L 229.084993 56.231551 
L 231.126648 59.8203 
L 233.639454 76.447826 
L 236.15226 73.212618 
L 238.665066 84.340458 
L 241.177873 60.448814 
L 243.690679 98.723676 
L 246.203485 85.887401 
L 248.716291 102.66421 
L 251.229097 58.23606 
L 253.741903 62.901512 
L 258.767515 66.050731 
L 261.280321 49.264802 
L 263.793127 57.434789 
L 266.305933 46.940686 
L 268.818739 50.020526 
L 271.331546 43.038973 
L 273.844352 52.234275 
L 276.357158 56.224666 
L 278.869964 55.550537 
L 281.38277 56.895567 
L 283.895576 63.061682 
L 286.408382 48.84816 
L 288.450037 45.297727 
L 290.962843 73.307869 
L 293.475649 89.955278 
L 295.988455 118.645677 
L 298.501261 64.558725 
L 301.014067 106.083528 
L 303.526873 97.036726 
L 306.039679 101.780233 
L 308.552486 70.927359 
L 316.090904 53.083642 
L 318.60371 61.385768 
L 321.116516 52.818718 
L 323.629322 36.98182 
L 326.142128 47.313975 
L 328.654934 31.492802 
L 331.16774 40.998891 
L 333.680546 62.790165 
L 336.193352 55.58923 
L 338.706159 61.307947 
L 341.218965 62.491009 
L 343.731771 73.922252 
L 345.773426 80.516135 
L 348.286232 63.719534 
L 350.799038 74.723849 
L 353.311844 97.322834 
L 355.82465 93.601737 
L 358.337456 95.686188 
L 360.850262 96.310742 
L 363.363068 116.382263 
" style="fill:none;stroke:#968e16;stroke-linecap:square;stroke-width:1.5;"/>
    <defs>
     <path d="M 0 -3 
L -0.673542 -0.927051 
L -2.85317 -0.927051 
L -1.089814 0.354102 
L -1.763356 2.427051 
L -0 1.145898 
L 1.763356 2.427051 
L 1.089814 0.354102 
L 2.85317 -0.927051 
L 0.673542 -0.927051 
z
" id="m15f95fd262" style="stroke:#968e16;stroke-linejoin:bevel;"/>
    </defs>
    <g clip-path="url(#pba957d1e7b)">
     <use style="fill:#968e16;stroke:#968e16;stroke-linejoin:bevel;" x="58.999432" xlink:href="#m15f95fd262" y="64.450389"/>
     <use style="fill:#968e16;stroke:#968e16;stroke-linejoin:bevel;" x="61.512238" xlink:href="#m15f95fd262" y="56.651098"/>
     <use style="fill:#968e16;stroke:#968e16;stroke-linejoin:bevel;" x="64.025044" xlink:href="#m15f95fd262" y="65.787796"/>
     <use style="fill:#968e16;stroke:#968e16;stroke-linejoin:bevel;" x="66.53785" xlink:href="#m15f95fd262" y="94.021137"/>
     <use style="fill:#968e16;stroke:#968e16;stroke-linejoin:bevel;" x="69.050656" xlink:href="#m15f95fd262" y="85.470987"/>
     <use style="fill:#968e16;stroke:#968e16;stroke-linejoin:bevel;" x="71.563462" xlink:href="#m15f95fd262" y="75.611568"/>
     <use style="fill:#968e16;stroke:#968e16;stroke-linejoin:bevel;" x="74.076268" xlink:href="#m15f95fd262" y="85.557437"/>
     <use style="fill:#968e16;stroke:#968e16;stroke-linejoin:bevel;" x="76.589074" xlink:href="#m15f95fd262" y="73.675622"/>
     <use style="fill:#968e16;stroke:#968e16;stroke-linejoin:bevel;" x="79.10188" xlink:href="#m15f95fd262" y="93.44998"/>
     <use style="fill:#968e16;stroke:#968e16;stroke-linejoin:bevel;" x="81.614687" xlink:href="#m15f95fd262" y="84.545231"/>
     <use style="fill:#968e16;stroke:#968e16;stroke-linejoin:bevel;" x="89.153105" xlink:href="#m15f95fd262" y="37.332801"/>
     <use style="fill:#968e16;stroke:#968e16;stroke-linejoin:bevel;" x="91.665911" xlink:href="#m15f95fd262" y="60.478202"/>
     <use style="fill:#968e16;stroke:#968e16;stroke-linejoin:bevel;" x="94.178717" xlink:href="#m15f95fd262" y="60.707913"/>
     <use style="fill:#968e16;stroke:#968e16;stroke-linejoin:bevel;" x="96.691523" xlink:href="#m15f95fd262" y="45.51983"/>
     <use style="fill:#968e16;stroke:#968e16;stroke-linejoin:bevel;" x="99.204329" xlink:href="#m15f95fd262" y="33.267686"/>
     <use style="fill:#968e16;stroke:#968e16;stroke-linejoin:bevel;" x="101.717135" xlink:href="#m15f95fd262" y="47.0813"/>
     <use style="fill:#968e16;stroke:#968e16;stroke-linejoin:bevel;" x="104.229941" xlink:href="#m15f95fd262" y="46.182424"/>
     <use style="fill:#968e16;stroke:#968e16;stroke-linejoin:bevel;" x="109.255553" xlink:href="#m15f95fd262" y="54.888213"/>
     <use style="fill:#968e16;stroke:#968e16;stroke-linejoin:bevel;" x="111.768359" xlink:href="#m15f95fd262" y="63.54335"/>
     <use style="fill:#968e16;stroke:#968e16;stroke-linejoin:bevel;" x="114.281166" xlink:href="#m15f95fd262" y="74.849337"/>
     <use style="fill:#968e16;stroke:#968e16;stroke-linejoin:bevel;" x="116.322821" xlink:href="#m15f95fd262" y="74.787546"/>
     <use style="fill:#968e16;stroke:#968e16;stroke-linejoin:bevel;" x="118.835627" xlink:href="#m15f95fd262" y="87.211055"/>
     <use style="fill:#968e16;stroke:#968e16;stroke-linejoin:bevel;" x="121.348433" xlink:href="#m15f95fd262" y="85.998063"/>
     <use style="fill:#968e16;stroke:#968e16;stroke-linejoin:bevel;" x="126.374045" xlink:href="#m15f95fd262" y="102.071516"/>
     <use style="fill:#968e16;stroke:#968e16;stroke-linejoin:bevel;" x="128.886851" xlink:href="#m15f95fd262" y="100.584578"/>
     <use style="fill:#968e16;stroke:#968e16;stroke-linejoin:bevel;" x="131.399657" xlink:href="#m15f95fd262" y="86.355787"/>
     <use style="fill:#968e16;stroke:#968e16;stroke-linejoin:bevel;" x="133.912463" xlink:href="#m15f95fd262" y="68.338064"/>
     <use style="fill:#968e16;stroke:#968e16;stroke-linejoin:bevel;" x="136.425269" xlink:href="#m15f95fd262" y="73.26303"/>
     <use style="fill:#968e16;stroke:#968e16;stroke-linejoin:bevel;" x="138.938075" xlink:href="#m15f95fd262" y="68.434566"/>
     <use style="fill:#968e16;stroke:#968e16;stroke-linejoin:bevel;" x="141.450881" xlink:href="#m15f95fd262" y="66.962639"/>
     <use style="fill:#968e16;stroke:#968e16;stroke-linejoin:bevel;" x="143.963687" xlink:href="#m15f95fd262" y="53.934633"/>
     <use style="fill:#968e16;stroke:#968e16;stroke-linejoin:bevel;" x="146.476493" xlink:href="#m15f95fd262" y="49.106714"/>
     <use style="fill:#968e16;stroke:#968e16;stroke-linejoin:bevel;" x="148.9893" xlink:href="#m15f95fd262" y="40.624035"/>
     <use style="fill:#968e16;stroke:#968e16;stroke-linejoin:bevel;" x="151.502106" xlink:href="#m15f95fd262" y="38.593163"/>
     <use style="fill:#968e16;stroke:#968e16;stroke-linejoin:bevel;" x="154.014912" xlink:href="#m15f95fd262" y="58.291855"/>
     <use style="fill:#968e16;stroke:#968e16;stroke-linejoin:bevel;" x="156.527718" xlink:href="#m15f95fd262" y="49.836697"/>
     <use style="fill:#968e16;stroke:#968e16;stroke-linejoin:bevel;" x="159.040524" xlink:href="#m15f95fd262" y="51.937594"/>
     <use style="fill:#968e16;stroke:#968e16;stroke-linejoin:bevel;" x="161.55333" xlink:href="#m15f95fd262" y="63.182555"/>
     <use style="fill:#968e16;stroke:#968e16;stroke-linejoin:bevel;" x="164.066136" xlink:href="#m15f95fd262" y="70.689212"/>
     <use style="fill:#968e16;stroke:#968e16;stroke-linejoin:bevel;" x="166.578942" xlink:href="#m15f95fd262" y="74.206805"/>
     <use style="fill:#968e16;stroke:#968e16;stroke-linejoin:bevel;" x="169.091748" xlink:href="#m15f95fd262" y="56.226773"/>
     <use style="fill:#968e16;stroke:#968e16;stroke-linejoin:bevel;" x="171.604554" xlink:href="#m15f95fd262" y="50.792888"/>
     <use style="fill:#968e16;stroke:#968e16;stroke-linejoin:bevel;" x="173.80326" xlink:href="#m15f95fd262" y="66.020236"/>
     <use style="fill:#968e16;stroke:#968e16;stroke-linejoin:bevel;" x="176.316066" xlink:href="#m15f95fd262" y="53.114589"/>
     <use style="fill:#968e16;stroke:#968e16;stroke-linejoin:bevel;" x="178.828872" xlink:href="#m15f95fd262" y="62.908746"/>
     <use style="fill:#968e16;stroke:#968e16;stroke-linejoin:bevel;" x="181.341678" xlink:href="#m15f95fd262" y="77.360804"/>
     <use style="fill:#968e16;stroke:#968e16;stroke-linejoin:bevel;" x="183.854484" xlink:href="#m15f95fd262" y="88.538639"/>
     <use style="fill:#968e16;stroke:#968e16;stroke-linejoin:bevel;" x="186.36729" xlink:href="#m15f95fd262" y="62.518622"/>
     <use style="fill:#968e16;stroke:#968e16;stroke-linejoin:bevel;" x="188.880096" xlink:href="#m15f95fd262" y="62.67859"/>
     <use style="fill:#968e16;stroke:#968e16;stroke-linejoin:bevel;" x="191.392902" xlink:href="#m15f95fd262" y="79.739871"/>
     <use style="fill:#968e16;stroke:#968e16;stroke-linejoin:bevel;" x="198.93132" xlink:href="#m15f95fd262" y="43.043195"/>
     <use style="fill:#968e16;stroke:#968e16;stroke-linejoin:bevel;" x="201.444126" xlink:href="#m15f95fd262" y="30.317637"/>
     <use style="fill:#968e16;stroke:#968e16;stroke-linejoin:bevel;" x="203.956933" xlink:href="#m15f95fd262" y="56.721885"/>
     <use style="fill:#968e16;stroke:#968e16;stroke-linejoin:bevel;" x="206.469739" xlink:href="#m15f95fd262" y="58.891386"/>
     <use style="fill:#968e16;stroke:#968e16;stroke-linejoin:bevel;" x="208.982545" xlink:href="#m15f95fd262" y="35.287104"/>
     <use style="fill:#968e16;stroke:#968e16;stroke-linejoin:bevel;" x="211.495351" xlink:href="#m15f95fd262" y="28.794437"/>
     <use style="fill:#968e16;stroke:#968e16;stroke-linejoin:bevel;" x="214.008157" xlink:href="#m15f95fd262" y="50.471779"/>
     <use style="fill:#968e16;stroke:#968e16;stroke-linejoin:bevel;" x="216.520963" xlink:href="#m15f95fd262" y="49.511212"/>
     <use style="fill:#968e16;stroke:#968e16;stroke-linejoin:bevel;" x="219.033769" xlink:href="#m15f95fd262" y="40.606839"/>
     <use style="fill:#968e16;stroke:#968e16;stroke-linejoin:bevel;" x="221.546575" xlink:href="#m15f95fd262" y="59.321097"/>
     <use style="fill:#968e16;stroke:#968e16;stroke-linejoin:bevel;" x="224.059381" xlink:href="#m15f95fd262" y="47.962835"/>
     <use style="fill:#968e16;stroke:#968e16;stroke-linejoin:bevel;" x="226.572187" xlink:href="#m15f95fd262" y="69.779378"/>
     <use style="fill:#968e16;stroke:#968e16;stroke-linejoin:bevel;" x="229.084993" xlink:href="#m15f95fd262" y="56.231551"/>
     <use style="fill:#968e16;stroke:#968e16;stroke-linejoin:bevel;" x="231.126648" xlink:href="#m15f95fd262" y="59.8203"/>
     <use style="fill:#968e16;stroke:#968e16;stroke-linejoin:bevel;" x="233.639454" xlink:href="#m15f95fd262" y="76.447826"/>
     <use style="fill:#968e16;stroke:#968e16;stroke-linejoin:bevel;" x="236.15226" xlink:href="#m15f95fd262" y="73.212618"/>
     <use style="fill:#968e16;stroke:#968e16;stroke-linejoin:bevel;" x="238.665066" xlink:href="#m15f95fd262" y="84.340458"/>
     <use style="fill:#968e16;stroke:#968e16;stroke-linejoin:bevel;" x="241.177873" xlink:href="#m15f95fd262" y="60.448814"/>
     <use style="fill:#968e16;stroke:#968e16;stroke-linejoin:bevel;" x="243.690679" xlink:href="#m15f95fd262" y="98.723676"/>
     <use style="fill:#968e16;stroke:#968e16;stroke-linejoin:bevel;" x="246.203485" xlink:href="#m15f95fd262" y="85.887401"/>
     <use style="fill:#968e16;stroke:#968e16;stroke-linejoin:bevel;" x="248.716291" xlink:href="#m15f95fd262" y="102.66421"/>
     <use style="fill:#968e16;stroke:#968e16;stroke-linejoin:bevel;" x="251.229097" xlink:href="#m15f95fd262" y="58.23606"/>
     <use style="fill:#968e16;stroke:#968e16;stroke-linejoin:bevel;" x="253.741903" xlink:href="#m15f95fd262" y="62.901512"/>
     <use style="fill:#968e16;stroke:#968e16;stroke-linejoin:bevel;" x="258.767515" xlink:href="#m15f95fd262" y="66.050731"/>
     <use style="fill:#968e16;stroke:#968e16;stroke-linejoin:bevel;" x="261.280321" xlink:href="#m15f95fd262" y="49.264802"/>
     <use style="fill:#968e16;stroke:#968e16;stroke-linejoin:bevel;" x="263.793127" xlink:href="#m15f95fd262" y="57.434789"/>
     <use style="fill:#968e16;stroke:#968e16;stroke-linejoin:bevel;" x="266.305933" xlink:href="#m15f95fd262" y="46.940686"/>
     <use style="fill:#968e16;stroke:#968e16;stroke-linejoin:bevel;" x="268.818739" xlink:href="#m15f95fd262" y="50.020526"/>
     <use style="fill:#968e16;stroke:#968e16;stroke-linejoin:bevel;" x="271.331546" xlink:href="#m15f95fd262" y="43.038973"/>
     <use style="fill:#968e16;stroke:#968e16;stroke-linejoin:bevel;" x="273.844352" xlink:href="#m15f95fd262" y="52.234275"/>
     <use style="fill:#968e16;stroke:#968e16;stroke-linejoin:bevel;" x="276.357158" xlink:href="#m15f95fd262" y="56.224666"/>
     <use style="fill:#968e16;stroke:#968e16;stroke-linejoin:bevel;" x="278.869964" xlink:href="#m15f95fd262" y="55.550537"/>
     <use style="fill:#968e16;stroke:#968e16;stroke-linejoin:bevel;" x="281.38277" xlink:href="#m15f95fd262" y="56.895567"/>
     <use style="fill:#968e16;stroke:#968e16;stroke-linejoin:bevel;" x="283.895576" xlink:href="#m15f95fd262" y="63.061682"/>
     <use style="fill:#968e16;stroke:#968e16;stroke-linejoin:bevel;" x="286.408382" xlink:href="#m15f95fd262" y="48.84816"/>
     <use style="fill:#968e16;stroke:#968e16;stroke-linejoin:bevel;" x="288.450037" xlink:href="#m15f95fd262" y="45.297727"/>
     <use style="fill:#968e16;stroke:#968e16;stroke-linejoin:bevel;" x="290.962843" xlink:href="#m15f95fd262" y="73.307869"/>
     <use style="fill:#968e16;stroke:#968e16;stroke-linejoin:bevel;" x="293.475649" xlink:href="#m15f95fd262" y="89.955278"/>
     <use style="fill:#968e16;stroke:#968e16;stroke-linejoin:bevel;" x="295.988455" xlink:href="#m15f95fd262" y="118.645677"/>
     <use style="fill:#968e16;stroke:#968e16;stroke-linejoin:bevel;" x="298.501261" xlink:href="#m15f95fd262" y="64.558725"/>
     <use style="fill:#968e16;stroke:#968e16;stroke-linejoin:bevel;" x="301.014067" xlink:href="#m15f95fd262" y="106.083528"/>
     <use style="fill:#968e16;stroke:#968e16;stroke-linejoin:bevel;" x="303.526873" xlink:href="#m15f95fd262" y="97.036726"/>
     <use style="fill:#968e16;stroke:#968e16;stroke-linejoin:bevel;" x="306.039679" xlink:href="#m15f95fd262" y="101.780233"/>
     <use style="fill:#968e16;stroke:#968e16;stroke-linejoin:bevel;" x="308.552486" xlink:href="#m15f95fd262" y="70.927359"/>
     <use style="fill:#968e16;stroke:#968e16;stroke-linejoin:bevel;" x="316.090904" xlink:href="#m15f95fd262" y="53.083642"/>
     <use style="fill:#968e16;stroke:#968e16;stroke-linejoin:bevel;" x="318.60371" xlink:href="#m15f95fd262" y="61.385768"/>
     <use style="fill:#968e16;stroke:#968e16;stroke-linejoin:bevel;" x="321.116516" xlink:href="#m15f95fd262" y="52.818718"/>
     <use style="fill:#968e16;stroke:#968e16;stroke-linejoin:bevel;" x="323.629322" xlink:href="#m15f95fd262" y="36.98182"/>
     <use style="fill:#968e16;stroke:#968e16;stroke-linejoin:bevel;" x="326.142128" xlink:href="#m15f95fd262" y="47.313975"/>
     <use style="fill:#968e16;stroke:#968e16;stroke-linejoin:bevel;" x="328.654934" xlink:href="#m15f95fd262" y="31.492802"/>
     <use style="fill:#968e16;stroke:#968e16;stroke-linejoin:bevel;" x="331.16774" xlink:href="#m15f95fd262" y="40.998891"/>
     <use style="fill:#968e16;stroke:#968e16;stroke-linejoin:bevel;" x="333.680546" xlink:href="#m15f95fd262" y="62.790165"/>
     <use style="fill:#968e16;stroke:#968e16;stroke-linejoin:bevel;" x="336.193352" xlink:href="#m15f95fd262" y="55.58923"/>
     <use style="fill:#968e16;stroke:#968e16;stroke-linejoin:bevel;" x="338.706159" xlink:href="#m15f95fd262" y="61.307947"/>
     <use style="fill:#968e16;stroke:#968e16;stroke-linejoin:bevel;" x="341.218965" xlink:href="#m15f95fd262" y="62.491009"/>
     <use style="fill:#968e16;stroke:#968e16;stroke-linejoin:bevel;" x="343.731771" xlink:href="#m15f95fd262" y="73.922252"/>
     <use style="fill:#968e16;stroke:#968e16;stroke-linejoin:bevel;" x="345.773426" xlink:href="#m15f95fd262" y="80.516135"/>
     <use style="fill:#968e16;stroke:#968e16;stroke-linejoin:bevel;" x="348.286232" xlink:href="#m15f95fd262" y="63.719534"/>
     <use style="fill:#968e16;stroke:#968e16;stroke-linejoin:bevel;" x="350.799038" xlink:href="#m15f95fd262" y="74.723849"/>
     <use style="fill:#968e16;stroke:#968e16;stroke-linejoin:bevel;" x="353.311844" xlink:href="#m15f95fd262" y="97.322834"/>
     <use style="fill:#968e16;stroke:#968e16;stroke-linejoin:bevel;" x="355.82465" xlink:href="#m15f95fd262" y="93.601737"/>
     <use style="fill:#968e16;stroke:#968e16;stroke-linejoin:bevel;" x="358.337456" xlink:href="#m15f95fd262" y="95.686188"/>
     <use style="fill:#968e16;stroke:#968e16;stroke-linejoin:bevel;" x="360.850262" xlink:href="#m15f95fd262" y="96.310742"/>
     <use style="fill:#968e16;stroke:#968e16;stroke-linejoin:bevel;" x="363.363068" xlink:href="#m15f95fd262" y="116.382263"/>
    </g>
   </g>
   <g id="patch_3">
    <path d="M 43.78125 123.138239 
L 43.78125 24.301875 
" style="fill:none;stroke:#000000;stroke-linecap:square;stroke-linejoin:miter;stroke-width:0.8;"/>
   </g>
   <g id="patch_4">
    <path d="M 378.58125 123.138239 
L 378.58125 24.301875 
" style="fill:none;stroke:#000000;stroke-linecap:square;stroke-linejoin:miter;stroke-width:0.8;"/>
   </g>
   <g id="patch_5">
    <path d="M 43.78125 123.138239 
L 378.58125 123.138239 
" style="fill:none;stroke:#000000;stroke-linecap:square;stroke-linejoin:miter;stroke-width:0.8;"/>
   </g>
   <g id="patch_6">
    <path d="M 43.78125 24.301875 
L 378.58125 24.301875 
" style="fill:none;stroke:#000000;stroke-linecap:square;stroke-linejoin:miter;stroke-width:0.8;"/>
   </g>
   <g id="text_11">
    <!-- Índice de vegetación MOD13Q1 2015-2020 -->
    <g transform="translate(81.400313 18.301875)scale(0.12 -0.12)">
     <defs>
      <path d="M 9.8125 72.90625 
L 19.671875 72.90625 
L 19.671875 0 
L 9.8125 0 
z
M 17.4375 92.515625 
L 26.46875 92.515625 
L 15.34375 79.625 
L 7.859375 79.625 
z
" id="DejaVuSans-205"/>
      <path d="M 54.890625 33.015625 
L 54.890625 0 
L 45.90625 0 
L 45.90625 32.71875 
Q 45.90625 40.484375 42.875 44.328125 
Q 39.84375 48.1875 33.796875 48.1875 
Q 26.515625 48.1875 22.3125 43.546875 
Q 18.109375 38.921875 18.109375 30.90625 
L 18.109375 0 
L 9.078125 0 
L 9.078125 54.6875 
L 18.109375 54.6875 
L 18.109375 46.1875 
Q 21.34375 51.125 25.703125 53.5625 
Q 30.078125 56 35.796875 56 
Q 45.21875 56 50.046875 50.171875 
Q 54.890625 44.34375 54.890625 33.015625 
z
" id="DejaVuSans-110"/>
      <path d="M 45.40625 46.390625 
L 45.40625 75.984375 
L 54.390625 75.984375 
L 54.390625 0 
L 45.40625 0 
L 45.40625 8.203125 
Q 42.578125 3.328125 38.25 0.953125 
Q 33.9375 -1.421875 27.875 -1.421875 
Q 17.96875 -1.421875 11.734375 6.484375 
Q 5.515625 14.40625 5.515625 27.296875 
Q 5.515625 40.1875 11.734375 48.09375 
Q 17.96875 56 27.875 56 
Q 33.9375 56 38.25 53.625 
Q 42.578125 51.265625 45.40625 46.390625 
z
M 14.796875 27.296875 
Q 14.796875 17.390625 18.875 11.75 
Q 22.953125 6.109375 30.078125 6.109375 
Q 37.203125 6.109375 41.296875 11.75 
Q 45.40625 17.390625 45.40625 27.296875 
Q 45.40625 37.203125 41.296875 42.84375 
Q 37.203125 48.484375 30.078125 48.484375 
Q 22.953125 48.484375 18.875 42.84375 
Q 14.796875 37.203125 14.796875 27.296875 
z
" id="DejaVuSans-100"/>
      <path d="M 48.78125 52.59375 
L 48.78125 44.1875 
Q 44.96875 46.296875 41.140625 47.34375 
Q 37.3125 48.390625 33.40625 48.390625 
Q 24.65625 48.390625 19.8125 42.84375 
Q 14.984375 37.3125 14.984375 27.296875 
Q 14.984375 17.28125 19.8125 11.734375 
Q 24.65625 6.203125 33.40625 6.203125 
Q 37.3125 6.203125 41.140625 7.25 
Q 44.96875 8.296875 48.78125 10.40625 
L 48.78125 2.09375 
Q 45.015625 0.34375 40.984375 -0.53125 
Q 36.96875 -1.421875 32.421875 -1.421875 
Q 20.0625 -1.421875 12.78125 6.34375 
Q 5.515625 14.109375 5.515625 27.296875 
Q 5.515625 40.671875 12.859375 48.328125 
Q 20.21875 56 33.015625 56 
Q 37.15625 56 41.109375 55.140625 
Q 45.0625 54.296875 48.78125 52.59375 
z
" id="DejaVuSans-99"/>
      <path id="DejaVuSans-32"/>
      <path d="M 2.984375 54.6875 
L 12.5 54.6875 
L 29.59375 8.796875 
L 46.6875 54.6875 
L 56.203125 54.6875 
L 35.6875 0 
L 23.484375 0 
z
" id="DejaVuSans-118"/>
      <path d="M 45.40625 27.984375 
Q 45.40625 37.75 41.375 43.109375 
Q 37.359375 48.484375 30.078125 48.484375 
Q 22.859375 48.484375 18.828125 43.109375 
Q 14.796875 37.75 14.796875 27.984375 
Q 14.796875 18.265625 18.828125 12.890625 
Q 22.859375 7.515625 30.078125 7.515625 
Q 37.359375 7.515625 41.375 12.890625 
Q 45.40625 18.265625 45.40625 27.984375 
z
M 54.390625 6.78125 
Q 54.390625 -7.171875 48.1875 -13.984375 
Q 42 -20.796875 29.203125 -20.796875 
Q 24.46875 -20.796875 20.265625 -20.09375 
Q 16.0625 -19.390625 12.109375 -17.921875 
L 12.109375 -9.1875 
Q 16.0625 -11.328125 19.921875 -12.34375 
Q 23.78125 -13.375 27.78125 -13.375 
Q 36.625 -13.375 41.015625 -8.765625 
Q 45.40625 -4.15625 45.40625 5.171875 
L 45.40625 9.625 
Q 42.625 4.78125 38.28125 2.390625 
Q 33.9375 0 27.875 0 
Q 17.828125 0 11.671875 7.65625 
Q 5.515625 15.328125 5.515625 27.984375 
Q 5.515625 40.671875 11.671875 48.328125 
Q 17.828125 56 27.875 56 
Q 33.9375 56 38.28125 53.609375 
Q 42.625 51.21875 45.40625 46.390625 
L 45.40625 54.6875 
L 54.390625 54.6875 
z
" id="DejaVuSans-103"/>
      <path d="M 18.3125 70.21875 
L 18.3125 54.6875 
L 36.8125 54.6875 
L 36.8125 47.703125 
L 18.3125 47.703125 
L 18.3125 18.015625 
Q 18.3125 11.328125 20.140625 9.421875 
Q 21.96875 7.515625 27.59375 7.515625 
L 36.8125 7.515625 
L 36.8125 0 
L 27.59375 0 
Q 17.1875 0 13.234375 3.875 
Q 9.28125 7.765625 9.28125 18.015625 
L 9.28125 47.703125 
L 2.6875 47.703125 
L 2.6875 54.6875 
L 9.28125 54.6875 
L 9.28125 70.21875 
z
" id="DejaVuSans-116"/>
      <path d="M 34.28125 27.484375 
Q 23.390625 27.484375 19.1875 25 
Q 14.984375 22.515625 14.984375 16.5 
Q 14.984375 11.71875 18.140625 8.90625 
Q 21.296875 6.109375 26.703125 6.109375 
Q 34.1875 6.109375 38.703125 11.40625 
Q 43.21875 16.703125 43.21875 25.484375 
L 43.21875 27.484375 
z
M 52.203125 31.203125 
L 52.203125 0 
L 43.21875 0 
L 43.21875 8.296875 
Q 40.140625 3.328125 35.546875 0.953125 
Q 30.953125 -1.421875 24.3125 -1.421875 
Q 15.921875 -1.421875 10.953125 3.296875 
Q 6 8.015625 6 15.921875 
Q 6 25.140625 12.171875 29.828125 
Q 18.359375 34.515625 30.609375 34.515625 
L 43.21875 34.515625 
L 43.21875 35.40625 
Q 43.21875 41.609375 39.140625 45 
Q 35.0625 48.390625 27.6875 48.390625 
Q 23 48.390625 18.546875 47.265625 
Q 14.109375 46.140625 10.015625 43.890625 
L 10.015625 52.203125 
Q 14.9375 54.109375 19.578125 55.046875 
Q 24.21875 56 28.609375 56 
Q 40.484375 56 46.34375 49.84375 
Q 52.203125 43.703125 52.203125 31.203125 
z
" id="DejaVuSans-97"/>
      <path d="M 30.609375 48.390625 
Q 23.390625 48.390625 19.1875 42.75 
Q 14.984375 37.109375 14.984375 27.296875 
Q 14.984375 17.484375 19.15625 11.84375 
Q 23.34375 6.203125 30.609375 6.203125 
Q 37.796875 6.203125 41.984375 11.859375 
Q 46.1875 17.53125 46.1875 27.296875 
Q 46.1875 37.015625 41.984375 42.703125 
Q 37.796875 48.390625 30.609375 48.390625 
z
M 30.609375 56 
Q 42.328125 56 49.015625 48.375 
Q 55.71875 40.765625 55.71875 27.296875 
Q 55.71875 13.875 49.015625 6.21875 
Q 42.328125 -1.421875 30.609375 -1.421875 
Q 18.84375 -1.421875 12.171875 6.21875 
Q 5.515625 13.875 5.515625 27.296875 
Q 5.515625 40.765625 12.171875 48.375 
Q 18.84375 56 30.609375 56 
z
M 37.40625 79.984375 
L 47.125 79.984375 
L 31.21875 61.625 
L 23.734375 61.625 
z
" id="DejaVuSans-243"/>
      <path d="M 9.8125 72.90625 
L 24.515625 72.90625 
L 43.109375 23.296875 
L 61.8125 72.90625 
L 76.515625 72.90625 
L 76.515625 0 
L 66.890625 0 
L 66.890625 64.015625 
L 48.09375 14.015625 
L 38.1875 14.015625 
L 19.390625 64.015625 
L 19.390625 0 
L 9.8125 0 
z
" id="DejaVuSans-77"/>
      <path d="M 39.40625 66.21875 
Q 28.65625 66.21875 22.328125 58.203125 
Q 16.015625 50.203125 16.015625 36.375 
Q 16.015625 22.609375 22.328125 14.59375 
Q 28.65625 6.59375 39.40625 6.59375 
Q 50.140625 6.59375 56.421875 14.59375 
Q 62.703125 22.609375 62.703125 36.375 
Q 62.703125 50.203125 56.421875 58.203125 
Q 50.140625 66.21875 39.40625 66.21875 
z
M 39.40625 74.21875 
Q 54.734375 74.21875 63.90625 63.9375 
Q 73.09375 53.65625 73.09375 36.375 
Q 73.09375 19.140625 63.90625 8.859375 
Q 54.734375 -1.421875 39.40625 -1.421875 
Q 24.03125 -1.421875 14.8125 8.828125 
Q 5.609375 19.09375 5.609375 36.375 
Q 5.609375 53.65625 14.8125 63.9375 
Q 24.03125 74.21875 39.40625 74.21875 
z
" id="DejaVuSans-79"/>
      <path d="M 19.671875 64.796875 
L 19.671875 8.109375 
L 31.59375 8.109375 
Q 46.6875 8.109375 53.6875 14.9375 
Q 60.6875 21.78125 60.6875 36.53125 
Q 60.6875 51.171875 53.6875 57.984375 
Q 46.6875 64.796875 31.59375 64.796875 
z
M 9.8125 72.90625 
L 30.078125 72.90625 
Q 51.265625 72.90625 61.171875 64.09375 
Q 71.09375 55.28125 71.09375 36.53125 
Q 71.09375 17.671875 61.125 8.828125 
Q 51.171875 0 30.078125 0 
L 9.8125 0 
z
" id="DejaVuSans-68"/>
      <path d="M 40.578125 39.3125 
Q 47.65625 37.796875 51.625 33 
Q 55.609375 28.21875 55.609375 21.1875 
Q 55.609375 10.40625 48.1875 4.484375 
Q 40.765625 -1.421875 27.09375 -1.421875 
Q 22.515625 -1.421875 17.65625 -0.515625 
Q 12.796875 0.390625 7.625 2.203125 
L 7.625 11.71875 
Q 11.71875 9.328125 16.59375 8.109375 
Q 21.484375 6.890625 26.8125 6.890625 
Q 36.078125 6.890625 40.9375 10.546875 
Q 45.796875 14.203125 45.796875 21.1875 
Q 45.796875 27.640625 41.28125 31.265625 
Q 36.765625 34.90625 28.71875 34.90625 
L 20.21875 34.90625 
L 20.21875 43.015625 
L 29.109375 43.015625 
Q 36.375 43.015625 40.234375 45.921875 
Q 44.09375 48.828125 44.09375 54.296875 
Q 44.09375 59.90625 40.109375 62.90625 
Q 36.140625 65.921875 28.71875 65.921875 
Q 24.65625 65.921875 20.015625 65.03125 
Q 15.375 64.15625 9.8125 62.3125 
L 9.8125 71.09375 
Q 15.4375 72.65625 20.34375 73.4375 
Q 25.25 74.21875 29.59375 74.21875 
Q 40.828125 74.21875 47.359375 69.109375 
Q 53.90625 64.015625 53.90625 55.328125 
Q 53.90625 49.265625 50.4375 45.09375 
Q 46.96875 40.921875 40.578125 39.3125 
z
" id="DejaVuSans-51"/>
      <path d="M 39.40625 66.21875 
Q 28.65625 66.21875 22.328125 58.203125 
Q 16.015625 50.203125 16.015625 36.375 
Q 16.015625 22.609375 22.328125 14.59375 
Q 28.65625 6.59375 39.40625 6.59375 
Q 50.140625 6.59375 56.421875 14.59375 
Q 62.703125 22.609375 62.703125 36.375 
Q 62.703125 50.203125 56.421875 58.203125 
Q 50.140625 66.21875 39.40625 66.21875 
z
M 53.21875 1.3125 
L 66.21875 -12.890625 
L 54.296875 -12.890625 
L 43.5 -1.21875 
Q 41.890625 -1.3125 41.03125 -1.359375 
Q 40.1875 -1.421875 39.40625 -1.421875 
Q 24.03125 -1.421875 14.8125 8.859375 
Q 5.609375 19.140625 5.609375 36.375 
Q 5.609375 53.65625 14.8125 63.9375 
Q 24.03125 74.21875 39.40625 74.21875 
Q 54.734375 74.21875 63.90625 63.9375 
Q 73.09375 53.65625 73.09375 36.375 
Q 73.09375 23.6875 67.984375 14.640625 
Q 62.890625 5.609375 53.21875 1.3125 
z
" id="DejaVuSans-81"/>
      <path d="M 4.890625 31.390625 
L 31.203125 31.390625 
L 31.203125 23.390625 
L 4.890625 23.390625 
z
" id="DejaVuSans-45"/>
     </defs>
     <use xlink:href="#DejaVuSans-205"/>
     <use x="29.492188" xlink:href="#DejaVuSans-110"/>
     <use x="92.871094" xlink:href="#DejaVuSans-100"/>
     <use x="156.347656" xlink:href="#DejaVuSans-105"/>
     <use x="184.130859" xlink:href="#DejaVuSans-99"/>
     <use x="239.111328" xlink:href="#DejaVuSans-101"/>
     <use x="300.634766" xlink:href="#DejaVuSans-32"/>
     <use x="332.421875" xlink:href="#DejaVuSans-100"/>
     <use x="395.898438" xlink:href="#DejaVuSans-101"/>
     <use x="457.421875" xlink:href="#DejaVuSans-32"/>
     <use x="489.208984" xlink:href="#DejaVuSans-118"/>
     <use x="548.388672" xlink:href="#DejaVuSans-101"/>
     <use x="609.912109" xlink:href="#DejaVuSans-103"/>
     <use x="673.388672" xlink:href="#DejaVuSans-101"/>
     <use x="734.912109" xlink:href="#DejaVuSans-116"/>
     <use x="774.121094" xlink:href="#DejaVuSans-97"/>
     <use x="835.400391" xlink:href="#DejaVuSans-99"/>
     <use x="890.380859" xlink:href="#DejaVuSans-105"/>
     <use x="918.164062" xlink:href="#DejaVuSans-243"/>
     <use x="979.345703" xlink:href="#DejaVuSans-110"/>
     <use x="1042.724609" xlink:href="#DejaVuSans-32"/>
     <use x="1074.511719" xlink:href="#DejaVuSans-77"/>
     <use x="1160.791016" xlink:href="#DejaVuSans-79"/>
     <use x="1239.501953" xlink:href="#DejaVuSans-68"/>
     <use x="1316.503906" xlink:href="#DejaVuSans-49"/>
     <use x="1380.126953" xlink:href="#DejaVuSans-51"/>
     <use x="1443.75" xlink:href="#DejaVuSans-81"/>
     <use x="1522.460938" xlink:href="#DejaVuSans-49"/>
     <use x="1586.083984" xlink:href="#DejaVuSans-32"/>
     <use x="1617.871094" xlink:href="#DejaVuSans-50"/>
     <use x="1681.494141" xlink:href="#DejaVuSans-48"/>
     <use x="1745.117188" xlink:href="#DejaVuSans-49"/>
     <use x="1808.740234" xlink:href="#DejaVuSans-53"/>
     <use x="1872.363281" xlink:href="#DejaVuSans-45"/>
     <use x="1908.447266" xlink:href="#DejaVuSans-50"/>
     <use x="1972.070312" xlink:href="#DejaVuSans-48"/>
     <use x="2035.693359" xlink:href="#DejaVuSans-50"/>
     <use x="2099.316406" xlink:href="#DejaVuSans-48"/>
    </g>
   </g>
   <g id="legend_1">
    <g id="patch_7">
     <path d="M 170.519531 118.138239 
L 251.842969 118.138239 
Q 253.842969 118.138239 253.842969 116.138239 
L 253.842969 102.460114 
Q 253.842969 100.460114 251.842969 100.460114 
L 170.519531 100.460114 
Q 168.519531 100.460114 168.519531 102.460114 
L 168.519531 116.138239 
Q 168.519531 118.138239 170.519531 118.138239 
z
" style="fill:#ffffff;opacity:0.8;stroke:#cccccc;stroke-linejoin:miter;"/>
    </g>
    <g id="line2d_10">
     <path d="M 172.519531 108.558551 
L 192.519531 108.558551 
" style="fill:none;stroke:#968e16;stroke-linecap:square;stroke-width:1.5;"/>
    </g>
    <g id="line2d_11">
     <g>
      <use style="fill:#968e16;stroke:#968e16;stroke-linejoin:bevel;" x="182.519531" xlink:href="#m15f95fd262" y="108.558551"/>
     </g>
    </g>
    <g id="text_12">
     <!-- Media EVI -->
     <g transform="translate(200.519531 112.058551)scale(0.1 -0.1)">
      <use xlink:href="#DejaVuSans-77"/>
      <use x="86.279297" xlink:href="#DejaVuSans-101"/>
      <use x="147.802734" xlink:href="#DejaVuSans-100"/>
      <use x="211.279297" xlink:href="#DejaVuSans-105"/>
      <use x="239.0625" xlink:href="#DejaVuSans-97"/>
      <use x="300.341797" xlink:href="#DejaVuSans-32"/>
      <use x="332.128906" xlink:href="#DejaVuSans-69"/>
      <use x="395.3125" xlink:href="#DejaVuSans-86"/>
      <use x="463.720703" xlink:href="#DejaVuSans-73"/>
     </g>
    </g>
   </g>
  </g>
  <g id="axes_2">
   <g id="patch_8">
    <path d="M 43.78125 241.741875 
L 378.58125 241.741875 
L 378.58125 142.905511 
L 43.78125 142.905511 
z
" style="fill:#ffffff;"/>
   </g>
   <g id="matplotlib.axis_3">
    <g id="xtick_7">
     <g id="line2d_12">
      <g>
       <use style="stroke:#000000;stroke-width:0.8;" x="58.999432" xlink:href="#mc98e60126a" y="241.741875"/>
      </g>
     </g>
     <g id="text_13">
      <!-- 2015 -->
      <g transform="translate(46.274432 256.340312)scale(0.1 -0.1)">
       <use xlink:href="#DejaVuSans-50"/>
       <use x="63.623047" xlink:href="#DejaVuSans-48"/>
       <use x="127.246094" xlink:href="#DejaVuSans-49"/>
       <use x="190.869141" xlink:href="#DejaVuSans-53"/>
      </g>
     </g>
    </g>
    <g id="xtick_8">
     <g id="line2d_13">
      <g>
       <use style="stroke:#000000;stroke-width:0.8;" x="116.322821" xlink:href="#mc98e60126a" y="241.741875"/>
      </g>
     </g>
     <g id="text_14">
      <!-- 2016 -->
      <g transform="translate(103.597821 256.340312)scale(0.1 -0.1)">
       <use xlink:href="#DejaVuSans-50"/>
       <use x="63.623047" xlink:href="#DejaVuSans-48"/>
       <use x="127.246094" xlink:href="#DejaVuSans-49"/>
       <use x="190.869141" xlink:href="#DejaVuSans-54"/>
      </g>
     </g>
    </g>
    <g id="xtick_9">
     <g id="line2d_14">
      <g>
       <use style="stroke:#000000;stroke-width:0.8;" x="173.80326" xlink:href="#mc98e60126a" y="241.741875"/>
      </g>
     </g>
     <g id="text_15">
      <!-- 2017 -->
      <g transform="translate(161.07826 256.340312)scale(0.1 -0.1)">
       <use xlink:href="#DejaVuSans-50"/>
       <use x="63.623047" xlink:href="#DejaVuSans-48"/>
       <use x="127.246094" xlink:href="#DejaVuSans-49"/>
       <use x="190.869141" xlink:href="#DejaVuSans-55"/>
      </g>
     </g>
    </g>
    <g id="xtick_10">
     <g id="line2d_15">
      <g>
       <use style="stroke:#000000;stroke-width:0.8;" x="231.126648" xlink:href="#mc98e60126a" y="241.741875"/>
      </g>
     </g>
     <g id="text_16">
      <!-- 2018 -->
      <g transform="translate(218.401648 256.340312)scale(0.1 -0.1)">
       <use xlink:href="#DejaVuSans-50"/>
       <use x="63.623047" xlink:href="#DejaVuSans-48"/>
       <use x="127.246094" xlink:href="#DejaVuSans-49"/>
       <use x="190.869141" xlink:href="#DejaVuSans-56"/>
      </g>
     </g>
    </g>
    <g id="xtick_11">
     <g id="line2d_16">
      <g>
       <use style="stroke:#000000;stroke-width:0.8;" x="288.450037" xlink:href="#mc98e60126a" y="241.741875"/>
      </g>
     </g>
     <g id="text_17">
      <!-- 2019 -->
      <g transform="translate(275.725037 256.340312)scale(0.1 -0.1)">
       <use xlink:href="#DejaVuSans-50"/>
       <use x="63.623047" xlink:href="#DejaVuSans-48"/>
       <use x="127.246094" xlink:href="#DejaVuSans-49"/>
       <use x="190.869141" xlink:href="#DejaVuSans-57"/>
      </g>
     </g>
    </g>
    <g id="xtick_12">
     <g id="line2d_17">
      <g>
       <use style="stroke:#000000;stroke-width:0.8;" x="345.773426" xlink:href="#mc98e60126a" y="241.741875"/>
      </g>
     </g>
     <g id="text_18">
      <!-- 2020 -->
      <g transform="translate(333.048426 256.340312)scale(0.1 -0.1)">
       <use xlink:href="#DejaVuSans-50"/>
       <use x="63.623047" xlink:href="#DejaVuSans-48"/>
       <use x="127.246094" xlink:href="#DejaVuSans-50"/>
       <use x="190.869141" xlink:href="#DejaVuSans-48"/>
      </g>
     </g>
    </g>
    <g id="text_19">
     <!-- Tiempo -->
     <g transform="translate(192.714063 270.018437)scale(0.1 -0.1)">
      <use xlink:href="#DejaVuSans-84"/>
      <use x="57.958984" xlink:href="#DejaVuSans-105"/>
      <use x="85.742188" xlink:href="#DejaVuSans-101"/>
      <use x="147.265625" xlink:href="#DejaVuSans-109"/>
      <use x="244.677734" xlink:href="#DejaVuSans-112"/>
      <use x="308.154297" xlink:href="#DejaVuSans-111"/>
     </g>
    </g>
   </g>
   <g id="matplotlib.axis_4">
    <g id="ytick_3">
     <g id="line2d_18">
      <g>
       <use style="stroke:#000000;stroke-width:0.8;" x="43.78125" xlink:href="#m5be6f5983b" y="207.124922"/>
      </g>
     </g>
     <g id="text_20">
      <!-- 0.6 -->
      <g transform="translate(20.878125 210.924141)scale(0.1 -0.1)">
       <use xlink:href="#DejaVuSans-48"/>
       <use x="63.623047" xlink:href="#DejaVuSans-46"/>
       <use x="95.410156" xlink:href="#DejaVuSans-54"/>
      </g>
     </g>
    </g>
    <g id="ytick_4">
     <g id="line2d_19">
      <g>
       <use style="stroke:#000000;stroke-width:0.8;" x="43.78125" xlink:href="#m5be6f5983b" y="167.225066"/>
      </g>
     </g>
     <g id="text_21">
      <!-- 0.8 -->
      <g transform="translate(20.878125 171.024285)scale(0.1 -0.1)">
       <use xlink:href="#DejaVuSans-48"/>
       <use x="63.623047" xlink:href="#DejaVuSans-46"/>
       <use x="95.410156" xlink:href="#DejaVuSans-56"/>
      </g>
     </g>
    </g>
    <g id="text_22">
     <!-- NDVI -->
     <g transform="translate(14.798438 204.722131)rotate(-90)scale(0.1 -0.1)">
      <defs>
       <path d="M 9.8125 72.90625 
L 23.09375 72.90625 
L 55.421875 11.921875 
L 55.421875 72.90625 
L 64.984375 72.90625 
L 64.984375 0 
L 51.703125 0 
L 19.390625 60.984375 
L 19.390625 0 
L 9.8125 0 
z
" id="DejaVuSans-78"/>
      </defs>
      <use xlink:href="#DejaVuSans-78"/>
      <use x="74.804688" xlink:href="#DejaVuSans-68"/>
      <use x="150.056641" xlink:href="#DejaVuSans-86"/>
      <use x="218.464844" xlink:href="#DejaVuSans-73"/>
     </g>
    </g>
   </g>
   <g id="line2d_20">
    <path clip-path="url(#p269a320f23)" d="M 58.999432 160.226671 
L 61.512238 162.111969 
L 64.025044 161.91461 
L 66.53785 180.071544 
L 69.050656 193.940595 
L 71.563462 189.8224 
L 74.076268 177.130859 
L 76.589074 183.734696 
L 79.10188 211.373588 
L 81.614687 200.797638 
L 89.153105 157.86819 
L 91.665911 155.849929 
L 94.178717 150.810473 
L 96.691523 161.202414 
L 99.204329 159.026593 
L 101.717135 158.653792 
L 104.229941 153.635758 
L 109.255553 149.951777 
L 111.768359 151.888323 
L 114.281166 165.365994 
L 116.322821 166.271155 
L 118.835627 162.230182 
L 121.348433 180.014979 
L 126.374045 186.534446 
L 128.886851 183.3217 
L 131.399657 197.591033 
L 133.912463 178.723108 
L 136.425269 178.555078 
L 138.938075 161.580688 
L 141.450881 152.124176 
L 143.963687 158.512882 
L 146.476493 158.798384 
L 148.9893 155.463058 
L 151.502106 157.098436 
L 154.014912 157.270631 
L 156.527718 159.167935 
L 159.040524 156.657323 
L 161.55333 157.475084 
L 164.066136 152.943366 
L 166.578942 150.324463 
L 169.091748 158.441649 
L 171.604554 163.195181 
L 173.80326 154.921563 
L 176.316066 156.72856 
L 178.828872 164.306875 
L 181.341678 164.709324 
L 183.854484 172.118949 
L 186.36729 177.825666 
L 188.880096 177.392879 
L 191.392902 162.121348 
L 198.93132 162.148878 
L 201.444126 160.10092 
L 203.956933 161.612168 
L 206.469739 156.976541 
L 208.982545 156.633973 
L 211.495351 155.219441 
L 214.008157 157.866787 
L 216.520963 152.018114 
L 219.033769 156.604076 
L 221.546575 156.043853 
L 224.059381 157.543057 
L 226.572187 160.093319 
L 229.084993 153.34097 
L 231.126648 162.753621 
L 233.639454 164.764287 
L 236.15226 180.691642 
L 238.665066 180.345225 
L 241.177873 166.419115 
L 243.690679 198.57549 
L 246.203485 200.213682 
L 248.716291 214.143624 
L 251.229097 178.980286 
L 253.741903 176.415535 
L 258.767515 160.432014 
L 261.280321 161.076295 
L 263.793127 159.860584 
L 266.305933 155.49274 
L 268.818739 154.250162 
L 271.331546 154.919143 
L 273.844352 156.117142 
L 276.357158 152.680951 
L 278.869964 147.398073 
L 281.38277 156.189063 
L 283.895576 156.775154 
L 286.408382 155.415115 
L 288.450037 156.530638 
L 290.962843 161.235956 
L 293.475649 166.688451 
L 295.988455 237.249313 
L 298.501261 189.544828 
L 301.014067 201.919801 
L 303.526873 192.13541 
L 306.039679 225.64929 
L 308.552486 169.144739 
L 316.090904 155.656925 
L 318.60371 163.471068 
L 321.116516 152.628808 
L 323.629322 159.006668 
L 326.142128 153.377177 
L 328.654934 156.836373 
L 331.16774 155.652935 
L 333.680546 156.282045 
L 336.193352 156.307135 
L 338.706159 150.667439 
L 341.218965 152.491424 
L 343.731771 159.194433 
L 345.773426 159.148992 
L 348.286232 156.650509 
L 350.799038 166.354436 
L 353.311844 194.777522 
L 355.82465 172.169459 
L 358.337456 207.407375 
L 360.850262 214.310783 
L 363.363068 217.004654 
" style="fill:none;stroke:#069222;stroke-linecap:square;stroke-width:1.5;"/>
    <defs>
     <path d="M 0 3 
C 0.795609 3 1.55874 2.683901 2.12132 2.12132 
C 2.683901 1.55874 3 0.795609 3 0 
C 3 -0.795609 2.683901 -1.55874 2.12132 -2.12132 
C 1.55874 -2.683901 0.795609 -3 0 -3 
C -0.795609 -3 -1.55874 -2.683901 -2.12132 -2.12132 
C -2.683901 -1.55874 -3 -0.795609 -3 0 
C -3 0.795609 -2.683901 1.55874 -2.12132 2.12132 
C -1.55874 2.683901 -0.795609 3 0 3 
z
" id="m91f9c44fa0" style="stroke:#069222;"/>
    </defs>
    <g clip-path="url(#p269a320f23)">
     <use style="fill:#069222;stroke:#069222;" x="58.999432" xlink:href="#m91f9c44fa0" y="160.226671"/>
     <use style="fill:#069222;stroke:#069222;" x="61.512238" xlink:href="#m91f9c44fa0" y="162.111969"/>
     <use style="fill:#069222;stroke:#069222;" x="64.025044" xlink:href="#m91f9c44fa0" y="161.91461"/>
     <use style="fill:#069222;stroke:#069222;" x="66.53785" xlink:href="#m91f9c44fa0" y="180.071544"/>
     <use style="fill:#069222;stroke:#069222;" x="69.050656" xlink:href="#m91f9c44fa0" y="193.940595"/>
     <use style="fill:#069222;stroke:#069222;" x="71.563462" xlink:href="#m91f9c44fa0" y="189.8224"/>
     <use style="fill:#069222;stroke:#069222;" x="74.076268" xlink:href="#m91f9c44fa0" y="177.130859"/>
     <use style="fill:#069222;stroke:#069222;" x="76.589074" xlink:href="#m91f9c44fa0" y="183.734696"/>
     <use style="fill:#069222;stroke:#069222;" x="79.10188" xlink:href="#m91f9c44fa0" y="211.373588"/>
     <use style="fill:#069222;stroke:#069222;" x="81.614687" xlink:href="#m91f9c44fa0" y="200.797638"/>
     <use style="fill:#069222;stroke:#069222;" x="89.153105" xlink:href="#m91f9c44fa0" y="157.86819"/>
     <use style="fill:#069222;stroke:#069222;" x="91.665911" xlink:href="#m91f9c44fa0" y="155.849929"/>
     <use style="fill:#069222;stroke:#069222;" x="94.178717" xlink:href="#m91f9c44fa0" y="150.810473"/>
     <use style="fill:#069222;stroke:#069222;" x="96.691523" xlink:href="#m91f9c44fa0" y="161.202414"/>
     <use style="fill:#069222;stroke:#069222;" x="99.204329" xlink:href="#m91f9c44fa0" y="159.026593"/>
     <use style="fill:#069222;stroke:#069222;" x="101.717135" xlink:href="#m91f9c44fa0" y="158.653792"/>
     <use style="fill:#069222;stroke:#069222;" x="104.229941" xlink:href="#m91f9c44fa0" y="153.635758"/>
     <use style="fill:#069222;stroke:#069222;" x="109.255553" xlink:href="#m91f9c44fa0" y="149.951777"/>
     <use style="fill:#069222;stroke:#069222;" x="111.768359" xlink:href="#m91f9c44fa0" y="151.888323"/>
     <use style="fill:#069222;stroke:#069222;" x="114.281166" xlink:href="#m91f9c44fa0" y="165.365994"/>
     <use style="fill:#069222;stroke:#069222;" x="116.322821" xlink:href="#m91f9c44fa0" y="166.271155"/>
     <use style="fill:#069222;stroke:#069222;" x="118.835627" xlink:href="#m91f9c44fa0" y="162.230182"/>
     <use style="fill:#069222;stroke:#069222;" x="121.348433" xlink:href="#m91f9c44fa0" y="180.014979"/>
     <use style="fill:#069222;stroke:#069222;" x="126.374045" xlink:href="#m91f9c44fa0" y="186.534446"/>
     <use style="fill:#069222;stroke:#069222;" x="128.886851" xlink:href="#m91f9c44fa0" y="183.3217"/>
     <use style="fill:#069222;stroke:#069222;" x="131.399657" xlink:href="#m91f9c44fa0" y="197.591033"/>
     <use style="fill:#069222;stroke:#069222;" x="133.912463" xlink:href="#m91f9c44fa0" y="178.723108"/>
     <use style="fill:#069222;stroke:#069222;" x="136.425269" xlink:href="#m91f9c44fa0" y="178.555078"/>
     <use style="fill:#069222;stroke:#069222;" x="138.938075" xlink:href="#m91f9c44fa0" y="161.580688"/>
     <use style="fill:#069222;stroke:#069222;" x="141.450881" xlink:href="#m91f9c44fa0" y="152.124176"/>
     <use style="fill:#069222;stroke:#069222;" x="143.963687" xlink:href="#m91f9c44fa0" y="158.512882"/>
     <use style="fill:#069222;stroke:#069222;" x="146.476493" xlink:href="#m91f9c44fa0" y="158.798384"/>
     <use style="fill:#069222;stroke:#069222;" x="148.9893" xlink:href="#m91f9c44fa0" y="155.463058"/>
     <use style="fill:#069222;stroke:#069222;" x="151.502106" xlink:href="#m91f9c44fa0" y="157.098436"/>
     <use style="fill:#069222;stroke:#069222;" x="154.014912" xlink:href="#m91f9c44fa0" y="157.270631"/>
     <use style="fill:#069222;stroke:#069222;" x="156.527718" xlink:href="#m91f9c44fa0" y="159.167935"/>
     <use style="fill:#069222;stroke:#069222;" x="159.040524" xlink:href="#m91f9c44fa0" y="156.657323"/>
     <use style="fill:#069222;stroke:#069222;" x="161.55333" xlink:href="#m91f9c44fa0" y="157.475084"/>
     <use style="fill:#069222;stroke:#069222;" x="164.066136" xlink:href="#m91f9c44fa0" y="152.943366"/>
     <use style="fill:#069222;stroke:#069222;" x="166.578942" xlink:href="#m91f9c44fa0" y="150.324463"/>
     <use style="fill:#069222;stroke:#069222;" x="169.091748" xlink:href="#m91f9c44fa0" y="158.441649"/>
     <use style="fill:#069222;stroke:#069222;" x="171.604554" xlink:href="#m91f9c44fa0" y="163.195181"/>
     <use style="fill:#069222;stroke:#069222;" x="173.80326" xlink:href="#m91f9c44fa0" y="154.921563"/>
     <use style="fill:#069222;stroke:#069222;" x="176.316066" xlink:href="#m91f9c44fa0" y="156.72856"/>
     <use style="fill:#069222;stroke:#069222;" x="178.828872" xlink:href="#m91f9c44fa0" y="164.306875"/>
     <use style="fill:#069222;stroke:#069222;" x="181.341678" xlink:href="#m91f9c44fa0" y="164.709324"/>
     <use style="fill:#069222;stroke:#069222;" x="183.854484" xlink:href="#m91f9c44fa0" y="172.118949"/>
     <use style="fill:#069222;stroke:#069222;" x="186.36729" xlink:href="#m91f9c44fa0" y="177.825666"/>
     <use style="fill:#069222;stroke:#069222;" x="188.880096" xlink:href="#m91f9c44fa0" y="177.392879"/>
     <use style="fill:#069222;stroke:#069222;" x="191.392902" xlink:href="#m91f9c44fa0" y="162.121348"/>
     <use style="fill:#069222;stroke:#069222;" x="198.93132" xlink:href="#m91f9c44fa0" y="162.148878"/>
     <use style="fill:#069222;stroke:#069222;" x="201.444126" xlink:href="#m91f9c44fa0" y="160.10092"/>
     <use style="fill:#069222;stroke:#069222;" x="203.956933" xlink:href="#m91f9c44fa0" y="161.612168"/>
     <use style="fill:#069222;stroke:#069222;" x="206.469739" xlink:href="#m91f9c44fa0" y="156.976541"/>
     <use style="fill:#069222;stroke:#069222;" x="208.982545" xlink:href="#m91f9c44fa0" y="156.633973"/>
     <use style="fill:#069222;stroke:#069222;" x="211.495351" xlink:href="#m91f9c44fa0" y="155.219441"/>
     <use style="fill:#069222;stroke:#069222;" x="214.008157" xlink:href="#m91f9c44fa0" y="157.866787"/>
     <use style="fill:#069222;stroke:#069222;" x="216.520963" xlink:href="#m91f9c44fa0" y="152.018114"/>
     <use style="fill:#069222;stroke:#069222;" x="219.033769" xlink:href="#m91f9c44fa0" y="156.604076"/>
     <use style="fill:#069222;stroke:#069222;" x="221.546575" xlink:href="#m91f9c44fa0" y="156.043853"/>
     <use style="fill:#069222;stroke:#069222;" x="224.059381" xlink:href="#m91f9c44fa0" y="157.543057"/>
     <use style="fill:#069222;stroke:#069222;" x="226.572187" xlink:href="#m91f9c44fa0" y="160.093319"/>
     <use style="fill:#069222;stroke:#069222;" x="229.084993" xlink:href="#m91f9c44fa0" y="153.34097"/>
     <use style="fill:#069222;stroke:#069222;" x="231.126648" xlink:href="#m91f9c44fa0" y="162.753621"/>
     <use style="fill:#069222;stroke:#069222;" x="233.639454" xlink:href="#m91f9c44fa0" y="164.764287"/>
     <use style="fill:#069222;stroke:#069222;" x="236.15226" xlink:href="#m91f9c44fa0" y="180.691642"/>
     <use style="fill:#069222;stroke:#069222;" x="238.665066" xlink:href="#m91f9c44fa0" y="180.345225"/>
     <use style="fill:#069222;stroke:#069222;" x="241.177873" xlink:href="#m91f9c44fa0" y="166.419115"/>
     <use style="fill:#069222;stroke:#069222;" x="243.690679" xlink:href="#m91f9c44fa0" y="198.57549"/>
     <use style="fill:#069222;stroke:#069222;" x="246.203485" xlink:href="#m91f9c44fa0" y="200.213682"/>
     <use style="fill:#069222;stroke:#069222;" x="248.716291" xlink:href="#m91f9c44fa0" y="214.143624"/>
     <use style="fill:#069222;stroke:#069222;" x="251.229097" xlink:href="#m91f9c44fa0" y="178.980286"/>
     <use style="fill:#069222;stroke:#069222;" x="253.741903" xlink:href="#m91f9c44fa0" y="176.415535"/>
     <use style="fill:#069222;stroke:#069222;" x="258.767515" xlink:href="#m91f9c44fa0" y="160.432014"/>
     <use style="fill:#069222;stroke:#069222;" x="261.280321" xlink:href="#m91f9c44fa0" y="161.076295"/>
     <use style="fill:#069222;stroke:#069222;" x="263.793127" xlink:href="#m91f9c44fa0" y="159.860584"/>
     <use style="fill:#069222;stroke:#069222;" x="266.305933" xlink:href="#m91f9c44fa0" y="155.49274"/>
     <use style="fill:#069222;stroke:#069222;" x="268.818739" xlink:href="#m91f9c44fa0" y="154.250162"/>
     <use style="fill:#069222;stroke:#069222;" x="271.331546" xlink:href="#m91f9c44fa0" y="154.919143"/>
     <use style="fill:#069222;stroke:#069222;" x="273.844352" xlink:href="#m91f9c44fa0" y="156.117142"/>
     <use style="fill:#069222;stroke:#069222;" x="276.357158" xlink:href="#m91f9c44fa0" y="152.680951"/>
     <use style="fill:#069222;stroke:#069222;" x="278.869964" xlink:href="#m91f9c44fa0" y="147.398073"/>
     <use style="fill:#069222;stroke:#069222;" x="281.38277" xlink:href="#m91f9c44fa0" y="156.189063"/>
     <use style="fill:#069222;stroke:#069222;" x="283.895576" xlink:href="#m91f9c44fa0" y="156.775154"/>
     <use style="fill:#069222;stroke:#069222;" x="286.408382" xlink:href="#m91f9c44fa0" y="155.415115"/>
     <use style="fill:#069222;stroke:#069222;" x="288.450037" xlink:href="#m91f9c44fa0" y="156.530638"/>
     <use style="fill:#069222;stroke:#069222;" x="290.962843" xlink:href="#m91f9c44fa0" y="161.235956"/>
     <use style="fill:#069222;stroke:#069222;" x="293.475649" xlink:href="#m91f9c44fa0" y="166.688451"/>
     <use style="fill:#069222;stroke:#069222;" x="295.988455" xlink:href="#m91f9c44fa0" y="237.249313"/>
     <use style="fill:#069222;stroke:#069222;" x="298.501261" xlink:href="#m91f9c44fa0" y="189.544828"/>
     <use style="fill:#069222;stroke:#069222;" x="301.014067" xlink:href="#m91f9c44fa0" y="201.919801"/>
     <use style="fill:#069222;stroke:#069222;" x="303.526873" xlink:href="#m91f9c44fa0" y="192.13541"/>
     <use style="fill:#069222;stroke:#069222;" x="306.039679" xlink:href="#m91f9c44fa0" y="225.64929"/>
     <use style="fill:#069222;stroke:#069222;" x="308.552486" xlink:href="#m91f9c44fa0" y="169.144739"/>
     <use style="fill:#069222;stroke:#069222;" x="316.090904" xlink:href="#m91f9c44fa0" y="155.656925"/>
     <use style="fill:#069222;stroke:#069222;" x="318.60371" xlink:href="#m91f9c44fa0" y="163.471068"/>
     <use style="fill:#069222;stroke:#069222;" x="321.116516" xlink:href="#m91f9c44fa0" y="152.628808"/>
     <use style="fill:#069222;stroke:#069222;" x="323.629322" xlink:href="#m91f9c44fa0" y="159.006668"/>
     <use style="fill:#069222;stroke:#069222;" x="326.142128" xlink:href="#m91f9c44fa0" y="153.377177"/>
     <use style="fill:#069222;stroke:#069222;" x="328.654934" xlink:href="#m91f9c44fa0" y="156.836373"/>
     <use style="fill:#069222;stroke:#069222;" x="331.16774" xlink:href="#m91f9c44fa0" y="155.652935"/>
     <use style="fill:#069222;stroke:#069222;" x="333.680546" xlink:href="#m91f9c44fa0" y="156.282045"/>
     <use style="fill:#069222;stroke:#069222;" x="336.193352" xlink:href="#m91f9c44fa0" y="156.307135"/>
     <use style="fill:#069222;stroke:#069222;" x="338.706159" xlink:href="#m91f9c44fa0" y="150.667439"/>
     <use style="fill:#069222;stroke:#069222;" x="341.218965" xlink:href="#m91f9c44fa0" y="152.491424"/>
     <use style="fill:#069222;stroke:#069222;" x="343.731771" xlink:href="#m91f9c44fa0" y="159.194433"/>
     <use style="fill:#069222;stroke:#069222;" x="345.773426" xlink:href="#m91f9c44fa0" y="159.148992"/>
     <use style="fill:#069222;stroke:#069222;" x="348.286232" xlink:href="#m91f9c44fa0" y="156.650509"/>
     <use style="fill:#069222;stroke:#069222;" x="350.799038" xlink:href="#m91f9c44fa0" y="166.354436"/>
     <use style="fill:#069222;stroke:#069222;" x="353.311844" xlink:href="#m91f9c44fa0" y="194.777522"/>
     <use style="fill:#069222;stroke:#069222;" x="355.82465" xlink:href="#m91f9c44fa0" y="172.169459"/>
     <use style="fill:#069222;stroke:#069222;" x="358.337456" xlink:href="#m91f9c44fa0" y="207.407375"/>
     <use style="fill:#069222;stroke:#069222;" x="360.850262" xlink:href="#m91f9c44fa0" y="214.310783"/>
     <use style="fill:#069222;stroke:#069222;" x="363.363068" xlink:href="#m91f9c44fa0" y="217.004654"/>
    </g>
   </g>
   <g id="patch_9">
    <path d="M 43.78125 241.741875 
L 43.78125 142.905511 
" style="fill:none;stroke:#000000;stroke-linecap:square;stroke-linejoin:miter;stroke-width:0.8;"/>
   </g>
   <g id="patch_10">
    <path d="M 378.58125 241.741875 
L 378.58125 142.905511 
" style="fill:none;stroke:#000000;stroke-linecap:square;stroke-linejoin:miter;stroke-width:0.8;"/>
   </g>
   <g id="patch_11">
    <path d="M 43.78125 241.741875 
L 378.58125 241.741875 
" style="fill:none;stroke:#000000;stroke-linecap:square;stroke-linejoin:miter;stroke-width:0.8;"/>
   </g>
   <g id="patch_12">
    <path d="M 43.78125 142.905511 
L 378.58125 142.905511 
" style="fill:none;stroke:#000000;stroke-linecap:square;stroke-linejoin:miter;stroke-width:0.8;"/>
   </g>
   <g id="legend_2">
    <g id="patch_13">
     <path d="M 50.78125 236.741875 
L 140.792188 236.741875 
Q 142.792188 236.741875 142.792188 234.741875 
L 142.792188 221.06375 
Q 142.792188 219.06375 140.792188 219.06375 
L 50.78125 219.06375 
Q 48.78125 219.06375 48.78125 221.06375 
L 48.78125 234.741875 
Q 48.78125 236.741875 50.78125 236.741875 
z
" style="fill:#ffffff;opacity:0.8;stroke:#cccccc;stroke-linejoin:miter;"/>
    </g>
    <g id="line2d_21">
     <path d="M 52.78125 227.162187 
L 72.78125 227.162187 
" style="fill:none;stroke:#069222;stroke-linecap:square;stroke-width:1.5;"/>
    </g>
    <g id="line2d_22">
     <g>
      <use style="fill:#069222;stroke:#069222;" x="62.78125" xlink:href="#m91f9c44fa0" y="227.162187"/>
     </g>
    </g>
    <g id="text_23">
     <!-- Media NDVI -->
     <g transform="translate(80.78125 230.662187)scale(0.1 -0.1)">
      <use xlink:href="#DejaVuSans-77"/>
      <use x="86.279297" xlink:href="#DejaVuSans-101"/>
      <use x="147.802734" xlink:href="#DejaVuSans-100"/>
      <use x="211.279297" xlink:href="#DejaVuSans-105"/>
      <use x="239.0625" xlink:href="#DejaVuSans-97"/>
      <use x="300.341797" xlink:href="#DejaVuSans-32"/>
      <use x="332.128906" xlink:href="#DejaVuSans-78"/>
      <use x="406.933594" xlink:href="#DejaVuSans-68"/>
      <use x="482.185547" xlink:href="#DejaVuSans-86"/>
      <use x="550.59375" xlink:href="#DejaVuSans-73"/>
     </g>
    </g>
   </g>
  </g>
 </g>
 <defs>
  <clipPath id="pba957d1e7b">
   <rect height="98.836364" width="334.8" x="43.78125" y="24.301875"/>
  </clipPath>
  <clipPath id="p269a320f23">
   <rect height="98.836364" width="334.8" x="43.78125" y="142.905511"/>
  </clipPath>
 </defs>
</svg>
